<svg width="1108" height="148" viewBox="0 0 1108 148" fill="none" xmlns="http://www.w3.org/2000/svg">
<g opacity="0.3">
<path d="M503.836 97.1377H438.551V147.955H503.836V97.1377Z" fill="white"/>
<path d="M432.602 97.1376H509.786L496.187 68.1729H447.564L432.602 97.1376Z" fill="#CCCCCC"/>
<path d="M470.623 102.522H459.44V113.763H470.623V102.522Z" fill="#666666"/>
<path d="M485.407 102.522H474.224V113.763H485.407V102.522Z" fill="#666666"/>
<path d="M470.623 116.971H459.44V128.189H470.623V116.971Z" fill="#666666"/>
<path d="M485.407 116.971H474.224V128.189H485.407V116.971Z" fill="#666666"/>
<path d="M197.649 71.4482H105.703V147.955H197.649V71.4482Z" fill="white"/>
<path d="M99.7539 71.4487H203.576L189.977 34.2051H114.717L99.7539 71.4487Z" fill="#CCCCCC"/>
<path d="M170.855 77.2598H160.455V87.6925H170.855V77.2598Z" fill="#666666"/>
<path d="M184.61 77.2598H174.21V87.6925H184.61V77.2598Z" fill="#666666"/>
<path d="M170.855 90.6982H160.455V101.131H170.855V90.6982Z" fill="#666666"/>
<path d="M184.61 90.6982H174.21V101.131H184.61V90.6982Z" fill="#666666"/>
<path d="M131.782 77.2598H121.382V87.6925H131.782V77.2598Z" fill="#666666"/>
<path d="M145.537 77.2598H135.137V87.6925H145.537V77.2598Z" fill="#666666"/>
<path d="M131.782 90.6982H121.382V101.131H131.782V90.6982Z" fill="#666666"/>
<path d="M145.537 90.6982H135.137V101.131H145.537V90.6982Z" fill="#666666"/>
<path d="M170.855 113.808H160.455V124.24H170.855V113.808Z" fill="#666666"/>
<path d="M184.61 113.808H174.21V124.24H184.61V113.808Z" fill="#666666"/>
<path d="M170.855 127.225H160.455V137.657H170.855V127.225Z" fill="#666666"/>
<path d="M184.61 127.225H174.21V137.657H184.61V127.225Z" fill="#666666"/>
<path d="M131.782 113.808H121.382V124.24H131.782V113.808Z" fill="#666666"/>
<path d="M145.537 113.808H135.137V124.24H145.537V113.808Z" fill="#666666"/>
<path d="M131.782 127.225H121.382V137.657H131.782V127.225Z" fill="#666666"/>
<path d="M145.537 127.225H135.137V137.657H145.537V127.225Z" fill="#666666"/>
<path d="M419.428 51.7949H327.482V147.955H419.428V51.7949Z" fill="white"/>
<path d="M374.115 8.02246L321.511 51.7949H425.355L374.115 8.02246Z" fill="#CCCCCC"/>
<path d="M392.634 64.1797H382.233V93.1444H392.634V64.1797Z" fill="#666666"/>
<path d="M406.388 64.1797H395.988V93.1444H406.388V64.1797Z" fill="#666666"/>
<path d="M353.56 64.1797H343.16V93.1444H353.56V64.1797Z" fill="#666666"/>
<path d="M406.388 112.978H395.988V139.362H406.388V112.978Z" fill="#666666"/>
<path d="M353.56 112.978H343.16V139.362H353.56V112.978Z" fill="#666666"/>
<path d="M367.315 64.1797H356.915V93.1444H367.315V64.1797Z" fill="#666666"/>
<path d="M365.19 144.59V118.699C365.19 117.544 365.417 116.401 365.858 115.333C366.298 114.266 366.944 113.297 367.758 112.48C368.573 111.664 369.539 111.016 370.603 110.574C371.666 110.132 372.806 109.904 373.958 109.904C375.108 109.904 376.247 110.132 377.31 110.574C378.372 111.016 379.337 111.665 380.149 112.482C380.962 113.299 381.605 114.268 382.044 115.335C382.482 116.402 382.706 117.545 382.703 118.699V144.59H365.19Z" fill="#666666"/>
<path d="M615.038 71.4482H523.093V147.955H615.038V71.4482Z" fill="white"/>
<path d="M517.121 71.4487H620.965L607.345 34.2051H532.106L517.121 71.4487Z" fill="#CCCCCC"/>
<path d="M589.586 79.9971H578.403V91.215H589.586V79.9971Z" fill="#666666"/>
<path d="M604.393 79.9971H593.21V91.215H604.393V79.9971Z" fill="#666666"/>
<path d="M589.586 94.4229H578.403V105.641H589.586V94.4229Z" fill="#666666"/>
<path d="M604.393 94.4229H593.21V105.641H604.393V94.4229Z" fill="#666666"/>
<path d="M547.583 79.9971H536.4V91.215H547.583V79.9971Z" fill="#666666"/>
<path d="M562.367 79.9971H551.185V91.215H562.367V79.9971Z" fill="#666666"/>
<path d="M547.583 94.4229H536.4V105.641H547.583V94.4229Z" fill="#666666"/>
<path d="M562.367 94.4229H551.185V105.641H562.367V94.4229Z" fill="#666666"/>
<path d="M582.317 60.5902V45.7825C582.317 43.9974 583.024 42.2854 584.283 41.0231C585.541 39.7609 587.248 39.0518 589.027 39.0518C590.807 39.0518 592.513 39.7609 593.772 41.0231C595.03 42.2854 595.737 43.9974 595.737 45.7825V60.5902H582.317Z" fill="#666666"/>
<path d="M561.473 144.589V124.958C561.473 122.625 562.396 120.388 564.041 118.739C565.685 117.09 567.915 116.163 570.24 116.163C572.565 116.163 574.795 117.09 576.44 118.739C578.084 120.388 579.007 122.625 579.007 124.958V144.589H561.473Z" fill="#666666"/>
<path d="M544.989 60.5902V45.7825C544.989 43.9974 545.696 42.2854 546.954 41.0231C548.213 39.7609 549.919 39.0518 551.699 39.0518C553.479 39.0518 555.185 39.7609 556.443 41.0231C557.702 42.2854 558.409 43.9974 558.409 45.7825V60.5902H544.989Z" fill="#666666"/>
<path d="M920.085 88.2305H854.8V147.977H920.085V88.2305Z" fill="white"/>
<path d="M912.414 59.2656L926.012 88.2303H848.828L863.791 59.2656H869.516V62.7431H883.808V59.2207L912.414 59.2656Z" fill="#CCCCCC"/>
<path d="M898.816 102.522H887.633V113.763H898.816V102.522Z" fill="#666666"/>
<path d="M913.621 102.522H902.438V113.763H913.621V102.522Z" fill="#666666"/>
<path d="M898.816 116.971H887.633V128.189H898.816V116.971Z" fill="#666666"/>
<path d="M913.621 116.971H902.438V128.189H913.621V116.971Z" fill="#666666"/>
<path d="M878.44 118.362H861.8V145.106H878.44V118.362Z" fill="#666666"/>
<path d="M883.786 47.7119H869.517V62.744H883.786V47.7119Z" fill="#CCCCCC"/>
<path d="M1004.31 88.2305H939.029V147.977H1004.31V88.2305Z" fill="white"/>
<path d="M972.354 51.7275L1010.26 88.2307H933.058L972.354 51.7275Z" fill="#CCCCCC"/>
<path d="M983.067 102.522H971.884V113.763H983.067V102.522Z" fill="#666666"/>
<path d="M997.851 102.522H986.668V113.763H997.851V102.522Z" fill="#666666"/>
<path d="M983.067 116.971H971.884V128.189H983.067V116.971Z" fill="#666666"/>
<path d="M997.851 116.971H986.668V128.189H997.851V116.971Z" fill="#666666"/>
<path d="M962.692 118.362H946.052V145.106H962.692V118.362Z" fill="#666666"/>
<path d="M790.207 56.3939C790.21 57.041 790.086 57.6824 789.841 58.2811C789.596 58.8798 789.236 59.4241 788.781 59.8828C788.325 60.3414 787.784 60.7053 787.189 60.9537C786.593 61.202 785.954 61.3298 785.309 61.3298C784.004 61.3298 782.753 60.8098 781.83 59.8841C780.907 58.9585 780.389 57.703 780.389 56.3939C780.395 55.0887 780.916 53.839 781.838 52.9182C782.76 51.9974 784.008 51.4805 785.309 51.4805C786.608 51.4805 787.854 51.9981 788.773 52.9196C789.691 53.841 790.207 55.0908 790.207 56.3939Z" fill="#E6E6E6"/>
<path d="M818.679 35.5512C818.673 36.8564 818.152 38.1061 817.23 39.0269C816.308 39.9477 815.06 40.4646 813.758 40.4646C812.459 40.4646 811.214 39.947 810.295 39.0255C809.376 38.1041 808.86 36.8543 808.86 35.5512C808.86 34.248 809.376 32.9983 810.295 32.0768C811.214 31.1554 812.459 30.6377 813.758 30.6377C815.06 30.6377 816.308 31.1546 817.23 32.0754C818.152 32.9963 818.673 34.246 818.679 35.5512Z" fill="#E6E6E6"/>
<path d="M766.477 66.9613C766.477 68.2645 765.961 69.5142 765.042 70.4357C764.124 71.3571 762.878 71.8748 761.579 71.8748C760.278 71.8748 759.029 71.3579 758.107 70.437C757.185 69.5162 756.664 68.2665 756.658 66.9613C756.664 65.6561 757.185 64.4064 758.107 63.4856C759.029 62.5648 760.278 62.0478 761.579 62.0479C762.878 62.0479 764.124 62.5655 765.042 63.487C765.961 64.4084 766.477 65.6582 766.477 66.9613Z" fill="#E6E6E6"/>
<path d="M792.086 21.2376C792.086 21.8848 791.959 22.5256 791.711 23.1231C791.464 23.7207 791.101 24.2634 790.644 24.7199C790.186 25.1765 789.644 25.538 789.047 25.7836C788.45 26.0292 787.811 26.1541 787.166 26.1511C785.867 26.1511 784.621 25.6335 783.702 24.712C782.784 23.7905 782.268 22.5408 782.268 21.2376C782.268 19.9324 782.783 18.6804 783.701 17.7554C784.619 16.8303 785.865 16.3077 787.166 16.3018C788.471 16.3018 789.722 16.8218 790.645 17.7474C791.568 18.6731 792.086 19.9286 792.086 21.2376Z" fill="#E6E6E6"/>
<path d="M809.374 23.5707C809.377 24.2179 809.253 24.8592 809.008 25.4579C808.763 26.0566 808.403 26.6009 807.948 27.0596C807.492 27.5182 806.952 27.8822 806.356 28.1305C805.76 28.3788 805.121 28.5066 804.476 28.5066C803.829 28.5096 803.188 28.384 802.59 28.137C801.991 27.89 801.448 27.5265 800.99 27.0676C800.533 26.6086 800.17 26.0633 799.924 25.4631C799.678 24.8629 799.553 24.2198 799.556 23.5707C799.556 22.9236 799.683 22.2828 799.931 21.6852C800.178 21.0877 800.541 20.545 800.998 20.0884C801.455 19.6319 801.998 19.2704 802.595 19.0248C803.192 18.7792 803.831 18.6543 804.476 18.6573C805.775 18.6573 807.021 19.1749 807.94 20.0964C808.858 21.0178 809.374 22.2676 809.374 23.5707Z" fill="#E6E6E6"/>
<path d="M810.314 67.4106C810.317 68.0577 810.192 68.6991 809.947 69.2978C809.703 69.8965 809.342 70.4408 808.887 70.8995C808.432 71.3581 807.891 71.722 807.295 71.9703C806.7 72.2187 806.061 72.3465 805.416 72.3465C804.769 72.3495 804.127 72.2238 803.529 71.9768C802.931 71.7298 802.387 71.3664 801.93 70.9074C801.472 70.4485 801.11 69.9032 800.864 69.303C800.617 68.7028 800.492 68.0596 800.495 67.4106C800.495 66.7635 800.623 66.1227 800.87 65.5251C801.118 64.9275 801.48 64.3848 801.938 63.9283C802.395 63.4717 802.938 63.1103 803.534 62.8647C804.131 62.6191 804.771 62.4942 805.416 62.4971C806.715 62.4971 807.961 63.0148 808.879 63.9363C809.798 64.8577 810.314 66.1075 810.314 67.4106Z" fill="#E6E6E6"/>
<path d="M835.856 78.4486C835.85 79.7538 835.329 81.0035 834.407 81.9243C833.484 82.8452 832.236 83.3621 830.935 83.3621C829.636 83.3621 828.39 82.8444 827.472 81.923C826.553 81.0015 826.037 79.7518 826.037 78.4486C826.037 77.1455 826.553 75.8958 827.472 74.9743C828.39 74.0529 829.636 73.5352 830.935 73.5352C832.236 73.5351 833.484 74.0521 834.407 74.9729C835.329 75.8937 835.85 77.1434 835.856 78.4486Z" fill="#E6E6E6"/>
<path d="M835.967 95.1189C838.673 95.1189 840.865 92.9191 840.865 90.2055C840.865 87.4918 838.673 85.292 835.967 85.292C833.262 85.292 831.069 87.4918 831.069 90.2055C831.069 92.9191 833.262 95.1189 835.967 95.1189Z" fill="#E6E6E6"/>
<path d="M839.054 64.1342C839.057 64.7814 838.932 65.4227 838.688 66.0214C838.443 66.6201 838.082 67.1644 837.627 67.6231C837.172 68.0817 836.631 68.4456 836.035 68.6939C835.44 68.9423 834.801 69.0701 834.156 69.0701C833.509 69.0731 832.868 68.9474 832.269 68.7004C831.671 68.4534 831.127 68.09 830.67 67.631C830.212 67.1721 829.85 66.6268 829.604 66.0266C829.358 65.4264 829.232 64.7832 829.235 64.1342C829.235 63.4871 829.363 62.8463 829.61 62.2487C829.858 61.6511 830.221 61.1085 830.678 60.6519C831.135 60.1954 831.678 59.8339 832.275 59.5883C832.871 59.3427 833.511 59.2178 834.156 59.2208C835.455 59.2208 836.701 59.7384 837.619 60.6599C838.538 61.5813 839.054 62.8311 839.054 64.1342Z" fill="#E6E6E6"/>
<path d="M815.614 107.346C815.614 108.649 815.098 109.899 814.18 110.82C813.261 111.742 812.015 112.26 810.716 112.26C809.415 112.26 808.167 111.743 807.245 110.822C806.323 109.901 805.802 108.651 805.796 107.346C805.802 106.041 806.323 104.791 807.245 103.87C808.167 102.95 809.415 102.433 810.716 102.433C812.015 102.433 813.261 102.95 814.18 103.872C815.098 104.793 815.614 106.043 815.614 107.346Z" fill="#E6E6E6"/>
<path d="M808.681 88.2758C808.681 89.5849 808.163 90.8403 807.24 91.766C806.317 92.6916 805.065 93.2117 803.76 93.2117C803.115 93.2117 802.477 93.0839 801.881 92.8355C801.285 92.5872 800.744 92.2232 800.289 91.7646C799.834 91.306 799.474 90.7617 799.229 90.163C798.984 89.5643 798.859 88.9229 798.862 88.2758C798.862 86.9726 799.378 85.7229 800.297 84.8014C801.216 83.88 802.461 83.3623 803.76 83.3623C805.062 83.3623 806.31 83.8792 807.232 84.8C808.154 85.7209 808.675 86.9706 808.681 88.2758Z" fill="#E6E6E6"/>
<path d="M787.635 81.2533C787.635 82.5564 787.119 83.8062 786.2 84.7277C785.282 85.6491 784.036 86.1668 782.737 86.1668C781.436 86.1668 780.188 85.6498 779.265 84.729C778.343 83.8082 777.822 82.5585 777.816 81.2533C777.822 79.9481 778.343 78.6984 779.265 77.7776C780.188 76.8568 781.436 76.3398 782.737 76.3398C784.036 76.3398 785.282 76.8575 786.2 77.779C787.119 78.7004 787.635 79.9502 787.635 81.2533Z" fill="#E6E6E6"/>
<path d="M789.514 103.286C789.514 104.591 788.999 105.843 788.081 106.768C787.163 107.693 785.917 108.216 784.616 108.222C783.311 108.222 782.059 107.701 781.136 106.776C780.214 105.85 779.695 104.595 779.695 103.286C779.695 102.638 779.823 101.998 780.07 101.4C780.318 100.802 780.681 100.26 781.138 99.8033C781.595 99.3467 782.138 98.9853 782.734 98.7397C783.331 98.4941 783.971 98.3692 784.616 98.3721C785.915 98.3721 787.161 98.8898 788.079 99.8113C788.998 100.733 789.514 101.982 789.514 103.286Z" fill="#E6E6E6"/>
<path d="M762.183 93.8842C762.183 95.1873 761.667 96.437 760.748 97.3585C759.83 98.2799 758.584 98.7976 757.285 98.7976C755.986 98.7976 754.74 98.2799 753.821 97.3585C752.903 96.437 752.387 95.1873 752.387 93.8842C752.387 92.581 752.903 91.3313 753.821 90.4099C754.74 89.4884 755.986 88.9707 757.285 88.9707C758.584 88.9707 759.83 89.4884 760.748 90.4099C761.667 91.3313 762.183 92.581 762.183 93.8842Z" fill="#E6E6E6"/>
<path d="M831.651 49.0129C831.651 50.8337 830.93 52.5799 829.646 53.8674C828.363 55.1549 826.622 55.8783 824.807 55.8783C822.992 55.8783 821.251 55.1549 819.967 53.8674C818.684 52.5799 817.963 50.8337 817.963 49.0129C817.96 48.1105 818.135 47.2164 818.478 46.3821C818.821 45.5478 819.325 44.7898 819.961 44.1517C820.597 43.5136 821.353 43.008 822.184 42.6641C823.016 42.3201 823.907 42.1445 824.807 42.1475C825.706 42.1445 826.598 42.3201 827.429 42.6641C828.261 43.008 829.017 43.5136 829.653 44.1517C830.289 44.7898 830.793 45.5478 831.136 46.3821C831.479 47.2164 831.654 48.1105 831.651 49.0129Z" fill="#E6E6E6"/>
<path d="M769.765 50.2472C769.765 52.068 769.044 53.8143 767.76 55.1018C766.477 56.3893 764.736 57.1126 762.921 57.1126C761.106 57.1126 759.365 56.3893 758.082 55.1018C756.798 53.8143 756.077 52.068 756.077 50.2472C756.077 49.3456 756.254 48.4529 756.598 47.6199C756.942 46.787 757.446 46.0301 758.082 45.3926C758.717 44.7551 759.472 44.2494 760.302 43.9044C761.132 43.5594 762.022 43.3818 762.921 43.3818C763.82 43.3818 764.71 43.5594 765.54 43.9044C766.37 44.2494 767.125 44.7551 767.76 45.3926C768.396 46.0301 768.9 46.787 769.244 47.6199C769.588 48.4529 769.765 49.3456 769.765 50.2472Z" fill="#E6E6E6"/>
<path d="M775.983 104.048C775.977 105.871 775.251 107.617 773.964 108.904C772.677 110.191 770.934 110.913 769.116 110.913C767.301 110.913 765.56 110.19 764.277 108.903C762.994 107.615 762.272 105.869 762.272 104.048C762.272 102.227 762.994 100.481 764.277 99.1934C765.56 97.9059 767.301 97.1826 769.116 97.1826C770.934 97.1826 772.677 97.9052 773.964 99.192C775.251 100.479 775.977 102.225 775.983 104.048Z" fill="#E6E6E6"/>
<path d="M761.535 80.0636C761.538 80.966 761.362 81.8601 761.02 82.6944C760.677 83.5287 760.173 84.2867 759.537 84.9248C758.901 85.5629 758.145 86.0685 757.313 86.4125C756.482 86.7564 755.59 86.932 754.691 86.929C753.791 86.932 752.9 86.7564 752.068 86.4125C751.236 86.0685 750.481 85.5629 749.845 84.9248C749.209 84.2867 748.705 83.5287 748.362 82.6944C748.019 81.8601 747.844 80.966 747.847 80.0636C747.847 78.2428 748.568 76.4966 749.851 75.2091C751.135 73.9216 752.876 73.1982 754.691 73.1982C756.506 73.1982 758.247 73.9216 759.53 75.2091C760.814 76.4966 761.535 78.2428 761.535 80.0636Z" fill="#E6E6E6"/>
<path d="M820.356 83.8779C818.541 83.8779 816.8 84.6012 815.517 85.8887C814.233 87.1763 813.512 88.9225 813.512 90.7433C813.518 91.5087 813.654 92.2675 813.915 92.9869L796.805 103.263L796.358 86.3235L815.436 73.1311C816.068 73.8024 816.831 74.3361 817.677 74.6989C818.524 75.0618 819.436 75.246 820.356 75.2401C822.171 75.2401 823.912 74.5168 825.195 73.2293C826.479 71.9418 827.2 70.1955 827.2 68.3747C827.2 67.4732 827.023 66.5804 826.679 65.7474C826.335 64.9145 825.831 64.1577 825.195 63.5201C824.56 62.8826 823.805 62.377 822.975 62.0319C822.145 61.6869 821.255 61.5094 820.356 61.5094C819.457 61.5094 818.567 61.6869 817.737 62.0319C816.907 62.377 816.152 62.8826 815.517 63.5201C814.881 64.1577 814.377 64.9145 814.033 65.7474C813.689 66.5804 813.512 67.4732 813.512 68.3747C813.519 69.0136 813.617 69.6482 813.803 70.2593L796.246 82.4196L795.664 60.9933L803 56.5061C804.201 57.5046 805.712 58.052 807.272 58.0542C809.087 58.0542 810.828 57.3309 812.111 56.0434C813.395 54.7559 814.116 53.0096 814.116 51.1888C814.116 49.368 813.395 47.6218 812.111 46.3343C810.828 45.0468 809.087 44.3234 807.272 44.3234C805.457 44.3234 803.716 45.0468 802.433 46.3343C801.149 47.6218 800.428 49.368 800.428 51.1888C800.43 52.1296 800.62 53.0604 800.987 53.926L795.575 57.1792L795.15 41.4741C796.685 41.1448 798.06 40.2964 799.045 39.071C800.031 37.8456 800.566 36.3177 800.562 34.7433C800.562 32.9225 799.841 31.1763 798.558 29.8888C797.274 28.6013 795.534 27.8779 793.718 27.8779C791.903 27.8779 790.163 28.6013 788.879 29.8888C787.596 31.1763 786.875 32.9225 786.875 34.7433C786.876 36.3334 787.427 37.8737 788.435 39.1013C789.442 40.3288 790.843 41.1675 792.399 41.4741L792.22 48.7657L787.076 46.1183C787.11 45.8427 787.11 45.5638 787.076 45.2882C787.076 43.985 786.56 42.7353 785.641 41.8139C784.723 40.8924 783.477 40.3747 782.178 40.3747C780.877 40.3747 779.628 40.8917 778.706 41.8125C777.784 42.7333 777.263 43.983 777.257 45.2882C777.263 46.5954 777.783 47.8475 778.705 48.7719C779.626 49.6963 780.875 50.2182 782.178 50.2241C783.414 50.2521 784.617 49.8206 785.555 49.0125L792.265 52.4228L791.795 71.1343L781.842 65.5029C781.951 65.0322 782.003 64.5502 781.999 64.067C781.999 62.2462 781.278 60.5 779.994 59.2125C778.711 57.925 776.97 57.2016 775.155 57.2016C773.34 57.2016 771.599 57.925 770.315 59.2125C769.032 60.5 768.311 62.2462 768.311 64.067C768.311 65.8879 769.032 67.6341 770.315 68.9216C771.599 70.2091 773.34 70.9324 775.155 70.9324C776.157 70.9358 777.148 70.7139 778.053 70.283C778.959 69.852 779.757 69.2229 780.388 68.442L791.706 74.8363L791.191 95.3651L773.299 84.7754C773.515 84.1938 773.628 83.5788 773.634 82.9581C773.634 81.6549 773.118 80.4052 772.199 79.4837C771.281 78.5623 770.035 78.0446 768.736 78.0446C767.435 78.0446 766.187 78.5615 765.264 79.4823C764.342 80.4032 763.821 81.6529 763.815 82.9581C763.815 83.6063 763.943 84.2481 764.19 84.847C764.437 85.4458 764.8 85.9899 765.257 86.4483C765.714 86.9066 766.256 87.2702 766.853 87.5182C767.45 87.7663 768.09 87.8939 768.736 87.8939C769.559 87.8858 770.367 87.6697 771.084 87.2657L790.99 99.1119L789.76 147.888H798.035L796.939 106.942L815.682 95.7241C816.949 96.9329 818.63 97.6076 820.378 97.6087C822.194 97.6087 823.934 96.8854 825.218 95.5978C826.501 94.3103 827.222 92.5641 827.222 90.7433C827.222 89.8399 827.045 88.9452 826.699 88.1108C826.354 87.2764 825.848 86.5186 825.21 85.8808C824.572 85.243 823.815 84.7378 822.982 84.3941C822.149 84.0504 821.257 83.875 820.356 83.8779Z" fill="#CCCCCC"/>
<path d="M781.395 32.7248C781.395 34.5456 780.674 36.2919 779.39 37.5794C778.107 38.8669 776.366 39.5902 774.551 39.5902C772.736 39.5902 770.995 38.8669 769.712 37.5794C768.428 36.2919 767.707 34.5456 767.707 32.7248C767.704 31.8224 767.879 30.9283 768.222 30.094C768.565 29.2598 769.069 28.5017 769.705 27.8636C770.341 27.2255 771.097 26.7199 771.928 26.376C772.76 26.032 773.651 25.8564 774.551 25.8594C775.451 25.8564 776.342 26.032 777.174 26.376C778.005 26.7199 778.761 27.2255 779.397 27.8636C780.033 28.5017 780.537 29.2598 780.88 30.094C781.223 30.9283 781.398 31.8224 781.395 32.7248Z" fill="#E6E6E6"/>
<path d="M1054.88 56.394C1054.89 57.043 1054.76 57.6862 1054.52 58.2864C1054.27 58.8866 1053.91 59.4319 1053.45 59.8908C1052.99 60.3497 1052.45 60.7132 1051.85 60.9602C1051.25 61.2072 1050.61 61.3328 1049.96 61.3299C1049.32 61.3299 1048.68 61.202 1048.08 60.9537C1047.49 60.7054 1046.95 60.3415 1046.49 59.8828C1046.04 59.4242 1045.68 58.8799 1045.43 58.2812C1045.19 57.6824 1045.06 57.0411 1045.07 56.394C1045.07 55.0908 1045.58 53.8411 1046.5 52.9196C1047.42 51.9982 1048.66 51.4805 1049.96 51.4805C1050.61 51.4776 1051.25 51.6025 1051.84 51.8481C1052.44 52.0937 1052.98 52.4551 1053.44 52.9117C1053.9 53.3682 1054.26 53.9109 1054.51 54.5085C1054.76 55.1061 1054.88 55.7468 1054.88 56.394Z" fill="#E6E6E6"/>
<path d="M1083.33 35.5512C1083.34 36.8429 1082.85 38.0874 1081.95 39.0154C1081.06 39.9433 1079.83 40.4801 1078.55 40.5096C1077.25 40.5096 1076 39.9926 1075.08 39.0718C1074.15 38.151 1073.63 36.9013 1073.63 35.5961C1073.63 34.2909 1074.15 33.0412 1075.08 32.1204C1076 31.1995 1077.25 30.6826 1078.55 30.6826C1079.82 30.7117 1081.03 31.2361 1081.92 32.1447C1082.82 33.0534 1083.32 34.2751 1083.33 35.5512Z" fill="#E6E6E6"/>
<path d="M1031.15 66.9614C1031.15 67.6085 1031.03 68.2493 1030.78 68.8469C1030.53 69.4445 1030.17 69.9871 1029.71 70.4437C1029.25 70.9002 1028.71 71.2617 1028.11 71.5073C1027.52 71.7529 1026.88 71.8778 1026.23 71.8748C1024.93 71.8748 1023.69 71.3572 1022.77 70.4357C1021.85 69.5143 1021.33 68.2645 1021.33 66.9614C1021.33 65.6582 1021.85 64.4085 1022.77 63.487C1023.69 62.5656 1024.93 62.0479 1026.23 62.0479C1026.88 62.0449 1027.52 62.1699 1028.11 62.4155C1028.71 62.6611 1029.25 63.0225 1029.71 63.4791C1030.17 63.9356 1030.53 64.4783 1030.78 65.0759C1031.03 65.6735 1031.15 66.3142 1031.15 66.9614Z" fill="#E6E6E6"/>
<path d="M1056.74 21.2376C1056.74 22.5408 1056.22 23.7905 1055.3 24.712C1054.39 25.6335 1053.14 26.1511 1051.84 26.1511C1050.54 26.1511 1049.3 25.6335 1048.38 24.712C1047.46 23.7905 1046.94 22.5408 1046.94 21.2376C1046.94 19.9324 1047.46 18.6804 1048.38 17.7554C1049.29 16.8303 1050.54 16.3077 1051.84 16.3018C1053.14 16.3077 1054.39 16.8303 1055.31 17.7554C1056.22 18.6804 1056.74 19.9324 1056.74 21.2376Z" fill="#E6E6E6"/>
<path d="M1074.07 23.5707C1074.08 24.2198 1073.95 24.8629 1073.7 25.4631C1073.46 26.0633 1073.1 26.6086 1072.64 27.0676C1072.18 27.5265 1071.64 27.89 1071.04 28.137C1070.44 28.384 1069.8 28.5096 1069.15 28.5066C1068.51 28.5066 1067.87 28.3788 1067.27 28.1305C1066.68 27.8822 1066.14 27.5182 1065.68 27.0596C1065.23 26.6009 1064.87 26.0566 1064.62 25.4579C1064.38 24.8592 1064.25 24.2179 1064.25 23.5707C1064.25 22.2676 1064.77 21.0178 1065.69 20.0964C1066.61 19.1749 1067.85 18.6573 1069.15 18.6573C1069.8 18.6543 1070.44 18.7792 1071.03 19.0248C1071.63 19.2704 1072.17 19.6319 1072.63 20.0884C1073.09 20.545 1073.45 21.0877 1073.7 21.6852C1073.95 22.2828 1074.07 22.9236 1074.07 23.5707Z" fill="#E6E6E6"/>
<path d="M1074.97 67.4107C1074.97 68.0578 1074.85 68.6992 1074.6 69.2979C1074.36 69.8966 1074 70.4409 1073.54 70.8996C1073.09 71.3582 1072.55 71.7221 1071.95 71.9705C1071.35 72.2188 1070.71 72.3466 1070.07 72.3466C1069.42 72.3525 1068.78 72.2291 1068.18 71.9835C1067.58 71.7378 1067.03 71.3748 1066.57 70.9156C1066.11 70.4563 1065.75 69.91 1065.5 69.3084C1065.25 68.7067 1065.12 68.0616 1065.13 67.4107C1065.12 66.7598 1065.25 66.1148 1065.5 65.5131C1065.75 64.9114 1066.11 64.3651 1066.57 63.9058C1067.03 63.4466 1067.58 63.0836 1068.18 62.838C1068.78 62.5923 1069.42 62.4689 1070.07 62.4748C1070.71 62.4748 1071.35 62.6026 1071.95 62.8509C1072.55 63.0993 1073.09 63.4632 1073.54 63.9219C1074 64.3805 1074.36 64.9248 1074.6 65.5235C1074.85 66.1223 1074.97 66.7636 1074.97 67.4107Z" fill="#E6E6E6"/>
<path d="M1100.51 78.4486C1100.51 79.7518 1099.99 81.0015 1099.08 81.923C1098.16 82.8444 1096.91 83.3621 1095.61 83.3621C1094.31 83.3621 1093.06 82.8452 1092.14 81.9243C1091.22 81.0035 1090.7 79.7538 1090.69 78.4486C1090.7 77.1434 1091.22 75.8937 1092.14 74.9729C1093.06 74.0521 1094.31 73.5351 1095.61 73.5352C1096.91 73.5352 1098.16 74.0529 1099.08 74.9743C1099.99 75.8958 1100.51 77.1455 1100.51 78.4486Z" fill="#E6E6E6"/>
<path d="M1105.15 92.0874C1106.19 89.5803 1105 86.7061 1102.5 85.6676C1100 84.6291 1097.14 85.8197 1096.1 88.3268C1095.07 90.8338 1096.25 93.708 1098.75 94.7465C1101.25 95.785 1104.12 94.5944 1105.15 92.0874Z" fill="#E6E6E6"/>
<path d="M1103.73 64.1342C1103.73 65.4433 1103.21 66.6987 1102.29 67.6244C1101.37 68.55 1100.12 69.0701 1098.81 69.0701C1098.17 69.0701 1097.53 68.9422 1096.93 68.6939C1096.33 68.4456 1095.79 68.0816 1095.34 67.623C1094.88 67.1644 1094.52 66.6201 1094.28 66.0213C1094.03 65.4226 1093.91 64.7813 1093.91 64.1342C1093.91 62.831 1094.43 61.5813 1095.35 60.6598C1096.27 59.7384 1097.51 59.2207 1098.81 59.2207C1100.11 59.2207 1101.36 59.7376 1102.28 60.6584C1103.2 61.5793 1103.72 62.829 1103.73 64.1342Z" fill="#E6E6E6"/>
<path d="M1080.29 107.346C1080.29 107.993 1080.16 108.634 1079.92 109.232C1079.67 109.829 1079.31 110.372 1078.85 110.828C1078.39 111.285 1077.85 111.646 1077.25 111.892C1076.66 112.138 1076.02 112.263 1075.37 112.26C1074.07 112.26 1072.83 111.742 1071.91 110.82C1070.99 109.899 1070.47 108.649 1070.47 107.346C1070.47 106.043 1070.99 104.793 1071.91 103.872C1072.83 102.95 1074.07 102.433 1075.37 102.433C1076.02 102.43 1076.66 102.555 1077.25 102.8C1077.85 103.046 1078.39 103.407 1078.85 103.864C1079.31 104.32 1079.67 104.863 1079.92 105.461C1080.16 106.058 1080.29 106.699 1080.29 107.346Z" fill="#E6E6E6"/>
<path d="M1073.34 88.2758C1073.34 88.9229 1073.21 89.5643 1072.97 90.163C1072.72 90.7617 1072.36 91.306 1071.91 91.7646C1071.45 92.2232 1070.91 92.5872 1070.32 92.8355C1069.72 93.0839 1069.08 93.2117 1068.44 93.2117C1067.13 93.2117 1065.88 92.6916 1064.96 91.766C1064.04 90.8403 1063.52 89.5849 1063.52 88.2758C1063.52 86.9706 1064.04 85.7209 1064.97 84.8C1065.89 83.8792 1067.14 83.3623 1068.44 83.3623C1069.74 83.3623 1070.98 83.88 1071.9 84.8014C1072.82 85.7229 1073.34 86.9726 1073.34 88.2758Z" fill="#E6E6E6"/>
<path d="M1052.31 81.2534C1052.31 82.5565 1051.8 83.8063 1050.88 84.7277C1049.96 85.6492 1048.71 86.1668 1047.41 86.1668C1046.77 86.1698 1046.13 86.0449 1045.53 85.7993C1044.94 85.5537 1044.39 85.1922 1043.94 84.7357C1043.48 84.2791 1043.12 83.7365 1042.87 83.1389C1042.62 82.5413 1042.49 81.9005 1042.49 81.2534C1042.49 80.6062 1042.62 79.9655 1042.87 79.3679C1043.12 78.7703 1043.48 78.2276 1043.94 77.7711C1044.39 77.3145 1044.94 76.9531 1045.53 76.7075C1046.13 76.4619 1046.77 76.3369 1047.41 76.3399C1048.71 76.3399 1049.96 76.8576 1050.88 77.779C1051.8 78.7005 1052.31 79.9502 1052.31 81.2534Z" fill="#E6E6E6"/>
<path d="M1054.19 103.286C1054.18 104.593 1053.66 105.845 1052.74 106.769C1051.82 107.694 1050.57 108.216 1049.27 108.221C1047.97 108.216 1046.72 107.693 1045.81 106.768C1044.89 105.843 1044.37 104.591 1044.37 103.286C1044.37 101.982 1044.89 100.733 1045.81 99.8112C1046.73 98.8898 1047.97 98.3721 1049.27 98.3721C1050.57 98.3721 1051.82 98.889 1052.74 99.8098C1053.66 100.731 1054.18 101.98 1054.19 103.286Z" fill="#E6E6E6"/>
<path d="M1026.86 93.8842C1026.86 95.1874 1026.34 96.4371 1025.42 97.3585C1024.51 98.28 1023.26 98.7977 1021.96 98.7977C1021.32 98.8006 1020.68 98.6757 1020.08 98.4301C1019.48 98.1845 1018.94 97.8231 1018.48 97.3666C1018.03 96.91 1017.66 96.3673 1017.42 95.7697C1017.17 95.1721 1017.04 94.5314 1017.04 93.8842C1017.04 93.2371 1017.17 92.5963 1017.42 91.9987C1017.66 91.4011 1018.03 90.8584 1018.48 90.4019C1018.94 89.9453 1019.48 89.5839 1020.08 89.3383C1020.68 89.0927 1021.32 88.9678 1021.96 88.9708C1023.26 88.9708 1024.51 89.4884 1025.42 90.4099C1026.34 91.3314 1026.86 92.5811 1026.86 93.8842Z" fill="#E6E6E6"/>
<path d="M1096.44 49.0132C1096.42 49.9148 1096.23 50.8041 1095.87 51.6304C1095.51 52.4567 1094.99 53.2037 1094.34 53.8287C1093.69 54.4538 1092.93 54.9446 1092.09 55.2732C1091.25 55.6019 1090.36 55.7618 1089.46 55.744C1087.67 55.7443 1085.95 55.0395 1084.67 53.7809C1083.39 52.5224 1082.65 50.8106 1082.62 49.0132C1082.61 48.1108 1082.79 47.2167 1083.13 46.3824C1083.48 45.5481 1083.98 44.7901 1084.62 44.152C1085.25 43.5139 1086.01 43.0083 1086.84 42.6644C1087.67 42.3204 1088.56 42.1448 1089.46 42.1478C1090.37 42.1299 1091.28 42.2942 1092.12 42.6312C1092.97 42.9682 1093.74 43.4711 1094.39 44.1104C1095.04 44.7497 1095.55 45.5126 1095.91 46.3544C1096.26 47.1963 1096.44 48.1002 1096.44 49.0132Z" fill="#E6E6E6"/>
<path d="M1034.44 50.2472C1034.44 52.068 1033.72 53.8143 1032.44 55.1018C1031.15 56.3893 1029.41 57.1126 1027.6 57.1126C1025.78 57.1126 1024.04 56.3893 1022.76 55.1018C1021.47 53.8143 1020.75 52.068 1020.75 50.2472C1020.75 49.3456 1020.93 48.4529 1021.27 47.6199C1021.62 46.787 1022.12 46.0301 1022.76 45.3926C1023.39 44.7551 1024.15 44.2494 1024.98 43.9044C1025.81 43.5594 1026.7 43.3818 1027.6 43.3818C1028.5 43.3818 1029.39 43.5594 1030.22 43.9044C1031.05 44.2494 1031.8 44.7551 1032.44 45.3926C1033.07 46.0301 1033.58 46.787 1033.92 47.6199C1034.26 48.4529 1034.44 49.3456 1034.44 50.2472Z" fill="#E6E6E6"/>
<path d="M1040.64 104.048C1040.64 105.865 1039.92 107.608 1038.64 108.895C1037.36 110.182 1035.63 110.907 1033.81 110.913C1032 110.913 1030.26 110.19 1028.98 108.903C1027.69 107.615 1026.97 105.869 1026.97 104.048C1026.97 102.227 1027.69 100.481 1028.98 99.1934C1030.26 97.9059 1032 97.1826 1033.81 97.1826C1035.63 97.1886 1037.36 97.9145 1038.64 99.2014C1039.92 100.488 1040.64 102.231 1040.64 104.048Z" fill="#E6E6E6"/>
<path d="M1026.21 80.0636C1026.21 80.966 1026.04 81.8601 1025.7 82.6944C1025.35 83.5287 1024.85 84.2867 1024.21 84.9248C1023.58 85.5629 1022.82 86.0685 1021.99 86.4125C1021.16 86.7564 1020.27 86.932 1019.37 86.929C1018.47 86.932 1017.58 86.7564 1016.74 86.4125C1015.91 86.0685 1015.16 85.5629 1014.52 84.9248C1013.88 84.2867 1013.38 83.5287 1013.04 82.6944C1012.69 81.8601 1012.52 80.966 1012.52 80.0636C1012.52 79.162 1012.7 78.2693 1013.04 77.4364C1013.39 76.6034 1013.89 75.8466 1014.53 75.2091C1015.16 74.5716 1015.92 74.0658 1016.75 73.7208C1017.58 73.3758 1018.47 73.1982 1019.37 73.1982C1021.18 73.1982 1022.92 73.9216 1024.21 75.2091C1025.49 76.4966 1026.21 78.2428 1026.21 80.0636Z" fill="#E6E6E6"/>
<path d="M1085.03 83.8781C1083.22 83.8781 1081.47 84.6007 1080.19 85.8875C1078.9 87.1744 1078.17 88.9206 1078.17 90.7435C1078.18 91.5078 1078.32 92.2648 1078.57 92.9871L1061.48 103.263L1061.01 86.3236L1080.09 73.1313C1080.73 73.799 1081.5 74.3301 1082.35 74.6926C1083.2 75.055 1084.11 75.2413 1085.03 75.2403C1085.94 75.2522 1086.84 75.0827 1087.68 74.7416C1088.53 74.4005 1089.29 73.8947 1089.94 73.2536C1090.58 72.6125 1091.1 71.849 1091.44 71.0075C1091.79 70.1661 1091.97 69.2635 1091.97 68.3524C1091.97 66.5316 1091.25 64.7854 1089.96 63.4979C1088.68 62.2104 1086.94 61.487 1085.12 61.487C1083.31 61.487 1081.56 62.2096 1080.27 63.4965C1078.99 64.7834 1078.26 66.5296 1078.26 68.3524C1078.27 68.9924 1078.38 69.627 1078.57 70.2371L1061.01 82.3973L1060.43 60.971L1067.74 56.4839C1068.95 57.4873 1070.47 58.035 1072.04 58.0319C1073.82 58.0087 1075.53 57.2874 1076.79 56.0217C1078.05 54.756 1078.77 53.0461 1078.79 51.2563C1078.79 50.3547 1078.62 49.462 1078.27 48.629C1077.93 47.7961 1077.42 47.0392 1076.79 46.4017C1076.15 45.7642 1075.4 45.2585 1074.57 44.9135C1073.74 44.5685 1072.85 44.3909 1071.95 44.3909C1070.14 44.4027 1068.41 45.1305 1067.13 46.4161C1065.85 47.7017 1065.13 49.4412 1065.13 51.2563C1065.14 52.1985 1065.33 53.1293 1065.71 53.9935L1060.27 57.2467L1059.85 41.5415C1061.39 41.2168 1062.77 40.3703 1063.76 39.1444C1064.75 37.9186 1065.29 36.3883 1065.28 34.8108C1065.28 33.9092 1065.1 33.017 1064.75 32.1852C1064.41 31.3534 1063.9 30.5982 1063.26 29.9628C1062.63 29.3273 1061.87 28.8241 1061.04 28.4818C1060.21 28.1395 1059.32 27.9649 1058.42 27.9678C1057.52 27.9649 1056.62 28.1403 1055.79 28.484C1054.96 28.8277 1054.2 29.3329 1053.56 29.9707C1052.93 30.6085 1052.42 31.3663 1052.07 32.2007C1051.73 33.0351 1051.55 33.9297 1051.55 34.8332C1051.56 36.4221 1052.11 37.9603 1053.12 39.187C1054.12 40.4137 1055.52 41.2534 1057.08 41.564L1056.9 48.8556L1051.71 46.2082C1051.73 45.932 1051.73 45.6543 1051.71 45.3781C1051.71 44.075 1051.19 42.8252 1050.27 41.9037C1049.35 40.9823 1048.11 40.4646 1046.81 40.4646C1046.16 40.4617 1045.53 40.5866 1044.93 40.8322C1044.33 41.0778 1043.79 41.4392 1043.33 41.8958C1042.87 42.3523 1042.51 42.895 1042.26 43.4926C1042.02 44.0902 1041.89 44.731 1041.89 45.3781C1041.89 46.6872 1042.41 47.9426 1043.33 48.8683C1044.25 49.794 1045.5 50.314 1046.81 50.314C1048.04 50.317 1049.23 49.8523 1050.14 49.0127L1056.85 52.423L1056.38 71.1345L1046.45 65.5031C1046.55 65.0305 1046.6 64.5497 1046.61 64.0672C1046.61 62.2464 1045.89 60.5001 1044.6 59.2126C1043.32 57.9251 1041.58 57.2018 1039.76 57.2018C1037.95 57.2018 1036.2 57.9244 1034.92 59.2112C1033.63 60.4981 1032.9 62.2443 1032.9 64.0672C1032.9 65.8901 1033.63 67.6362 1034.92 68.9231C1036.2 70.21 1037.95 70.9326 1039.76 70.9326C1040.76 70.9364 1041.74 70.7214 1042.65 70.3028C1043.55 69.8842 1044.35 69.2721 1045 68.5095L1056.18 74.9037L1055.67 95.4326L1037.77 84.8428C1038.01 84.2656 1038.13 83.6487 1038.13 83.0255C1038.11 81.7571 1037.61 80.5443 1036.72 79.641C1035.83 78.7378 1034.63 78.214 1033.37 78.1794C1032.07 78.1794 1030.82 78.697 1029.9 79.6185C1028.99 80.5399 1028.47 81.7897 1028.47 83.0928C1028.47 83.74 1028.59 84.3813 1028.84 84.98C1029.08 85.5787 1029.44 86.123 1029.9 86.5817C1030.35 87.0403 1030.89 87.4043 1031.49 87.6526C1032.08 87.9009 1032.72 88.0288 1033.37 88.0288C1034.2 88.0205 1035.01 87.8045 1035.74 87.4005L1055.62 99.2467L1054.41 148.022H1062.67L1061.57 107.077L1080.34 95.8589C1081.6 97.0777 1083.28 97.754 1085.03 97.7435C1085.95 97.7557 1086.86 97.5826 1087.71 97.2346C1088.56 96.8866 1089.33 96.3707 1089.98 95.7176C1090.63 95.0645 1091.13 94.2877 1091.48 93.4331C1091.82 92.5786 1091.98 91.6639 1091.97 90.7435C1091.97 89.8343 1091.79 88.9342 1091.44 88.0953C1091.09 87.2565 1090.58 86.4956 1089.93 85.8569C1089.29 85.2182 1088.52 84.7144 1087.68 84.3747C1086.84 84.035 1085.94 83.8662 1085.03 83.8781Z" fill="#CCCCCC"/>
<path d="M1046.07 32.7248C1046.07 34.5456 1045.35 36.2919 1044.07 37.5794C1042.78 38.8669 1041.04 39.5902 1039.23 39.5902C1038.33 39.5932 1037.43 39.4177 1036.6 39.0741C1035.77 38.7304 1035.01 38.2251 1034.37 37.5873C1033.74 36.9495 1033.23 36.1917 1032.88 35.3573C1032.54 34.5229 1032.36 33.6283 1032.36 32.7248C1032.36 31.8214 1032.54 30.9268 1032.88 30.0924C1033.23 29.258 1033.74 28.5001 1034.37 27.8623C1035.01 27.2245 1035.77 26.7193 1036.6 26.3756C1037.43 26.0319 1038.33 25.8565 1039.23 25.8594C1040.13 25.8564 1041.02 26.032 1041.85 26.376C1042.68 26.7199 1043.44 27.2255 1044.07 27.8636C1044.71 28.5017 1045.21 29.2598 1045.56 30.094C1045.9 30.9283 1046.07 31.8224 1046.07 32.7248Z" fill="#E6E6E6"/>
<path d="M42.5649 56.3494C42.5591 56.9976 42.4259 57.6383 42.1733 58.2349C41.9206 58.8315 41.5533 59.3724 41.0922 59.8266C40.6312 60.2807 40.0854 60.6393 39.4862 60.8819C38.887 61.1245 38.2459 61.2464 37.5998 61.2404C36.2987 61.2227 35.0576 60.6887 34.148 59.7553C33.2384 58.8218 32.7344 57.5649 32.7463 56.2597C32.7521 55.6125 32.8854 54.9729 33.1384 54.3775C33.3913 53.7822 33.7591 53.2428 34.2205 52.7904C34.6818 52.338 35.2277 51.9815 35.8268 51.7414C36.4259 51.5012 37.0665 51.3822 37.7116 51.3911C38.3548 51.397 38.9905 51.5299 39.5826 51.7822C40.1746 52.0346 40.7113 52.4014 41.162 52.8619C41.6127 53.3223 41.9686 53.8673 42.2093 54.4657C42.45 55.0641 42.5708 55.7042 42.5649 56.3494Z" fill="#E6E6E6"/>
<path d="M71.2378 35.8657C71.2201 37.1709 70.6877 38.416 69.7572 39.3284C68.8266 40.2408 67.5738 40.7463 66.2726 40.7343C64.9715 40.7166 63.7303 40.1826 62.8207 39.2491C61.9111 38.3157 61.4072 37.0588 61.4192 35.7536C61.4368 34.4484 61.9692 33.2034 62.8997 32.2909C63.8303 31.3785 65.0832 30.873 66.3844 30.885C67.0296 30.8908 67.6671 31.0245 68.2606 31.2782C68.8541 31.532 69.3918 31.9009 69.8428 32.3637C70.2937 32.8265 70.6492 33.3741 70.8886 33.9751C71.1279 34.5761 71.2466 35.2186 71.2378 35.8657Z" fill="#E6E6E6"/>
<path d="M18.7231 66.7144C18.7054 68.0196 18.173 69.2646 17.2425 70.177C16.312 71.0894 15.059 71.595 13.7578 71.583C12.4567 71.5652 11.2156 71.0312 10.3061 70.0978C9.39648 69.1643 8.89256 67.9074 8.9045 66.6022C8.92219 65.297 9.45456 64.052 10.3851 63.1396C11.3156 62.2272 12.5685 61.7216 13.8696 61.7336C14.5148 61.7395 15.1525 61.8731 15.746 62.1269C16.3395 62.3806 16.8771 62.7495 17.3281 63.2123C17.7791 63.6751 18.1345 64.2228 18.3739 64.8237C18.6133 65.4247 18.732 66.0673 18.7231 66.7144Z" fill="#E6E6E6"/>
<path d="M44.8016 21.2144C44.7957 21.8596 44.6633 22.4974 44.4117 23.0913C44.1601 23.6852 43.7944 24.2236 43.3354 24.6757C42.8765 25.1277 42.3332 25.4847 41.7366 25.7262C41.1401 25.9676 40.502 26.0889 39.8588 26.083C39.2137 26.0771 38.576 25.9435 37.9825 25.6897C37.389 25.4359 36.8513 25.0671 36.4003 24.6042C35.9494 24.1414 35.5939 23.5938 35.3545 22.9928C35.1152 22.3918 34.9965 21.7493 35.0053 21.1022C35.0112 20.4569 35.1438 19.8192 35.3954 19.2253C35.6469 18.6314 36.0126 18.093 36.4716 17.6409C36.9306 17.1889 37.4739 16.8319 38.0704 16.5904C38.6669 16.3489 39.305 16.2277 39.9482 16.2336C40.5934 16.2395 41.231 16.3731 41.8246 16.6269C42.4181 16.8806 42.9557 17.2495 43.4067 17.7123C43.8577 18.1751 44.213 18.7228 44.4524 19.3237C44.6918 19.9247 44.8104 20.5672 44.8016 21.2144Z" fill="#E6E6E6"/>
<path d="M62.0682 23.7495C62.0623 24.3948 61.9297 25.0326 61.6782 25.6264C61.4266 26.2203 61.0609 26.7587 60.6019 27.2108C60.1429 27.6629 59.5996 28.0199 59.0031 28.2613C58.4066 28.5028 57.7685 28.624 57.1253 28.6181C56.4801 28.6123 55.8425 28.4786 55.249 28.2249C54.6554 27.9711 54.1178 27.6022 53.6668 27.1394C53.2158 26.6766 52.8605 26.129 52.6211 25.528C52.3818 24.927 52.2631 24.2845 52.2719 23.6373C52.2778 22.9921 52.4102 22.3543 52.6618 21.7604C52.9134 21.1665 53.2791 20.6282 53.7381 20.1761C54.1971 19.724 54.7403 19.367 55.3369 19.1256C55.9334 18.8841 56.5715 18.7628 57.2147 18.7688C57.8607 18.7716 58.4997 18.9032 59.0946 19.156C59.6894 19.4087 60.2283 19.7775 60.6799 20.2409C61.1314 20.7043 61.4868 21.2531 61.7251 21.8554C61.9634 22.4578 62.08 23.1016 62.0682 23.7495Z" fill="#E6E6E6"/>
<path d="M62.5377 67.5894C62.5318 68.2346 62.3994 68.8724 62.1478 69.4663C61.8962 70.0602 61.5305 70.5986 61.0716 71.0507C60.6126 71.5028 60.0693 71.8597 59.4728 72.1012C58.8762 72.3426 58.2382 72.4639 57.5949 72.458C56.9479 72.4551 56.3079 72.3236 55.7118 72.0711C55.1157 71.8187 54.5753 71.4503 54.122 70.9872C53.6686 70.5241 53.3112 69.9754 53.0705 69.373C52.8297 68.7705 52.7103 68.1262 52.7192 67.4772C52.7369 66.172 53.2691 64.927 54.1997 64.0146C55.1302 63.1022 56.3832 62.5966 57.6843 62.6086C58.9855 62.6264 60.2266 63.1604 61.1361 64.0938C62.0457 65.0273 62.5496 66.2841 62.5377 67.5894Z" fill="#E6E6E6"/>
<path d="M87.9674 78.8973C87.9497 80.2024 87.4174 81.4474 86.4869 82.3599C85.5564 83.2723 84.3034 83.7778 83.0022 83.7658C82.3571 83.76 81.7194 83.6263 81.1259 83.3726C80.5324 83.1188 79.9947 82.7499 79.5438 82.2871C79.0928 81.8243 78.7375 81.2767 78.4981 80.6757C78.2587 80.0747 78.14 79.4322 78.1489 78.7851C78.1547 78.1379 78.2879 77.4983 78.5408 76.9029C78.7938 76.3075 79.1616 75.7682 79.6229 75.3158C80.0843 74.8634 80.6303 74.5069 81.2294 74.2668C81.8285 74.0266 82.4689 73.9076 83.114 73.9165C84.4151 73.9342 85.6562 74.4682 86.5658 75.4017C87.4754 76.3351 87.9793 77.592 87.9674 78.8973Z" fill="#E6E6E6"/>
<path d="M92.8659 90.6987C92.86 91.344 92.7275 91.9818 92.4759 92.5757C92.2244 93.1695 91.8587 93.7079 91.3997 94.16C90.9407 94.6121 90.3974 94.9691 89.8009 95.2105C89.2044 95.452 88.5663 95.5733 87.9231 95.5673C87.276 95.5644 86.636 95.4329 86.0399 95.1805C85.4438 94.928 84.9035 94.5597 84.4501 94.0966C83.9968 93.6334 83.6394 93.0848 83.3986 92.4823C83.1578 91.8799 83.0385 91.2356 83.0473 90.5866C83.065 89.2814 83.5973 88.0364 84.5278 87.124C85.4583 86.2115 86.7113 85.706 88.0125 85.718C88.6576 85.7238 89.2953 85.8575 89.8888 86.1112C90.4823 86.365 91.02 86.7339 91.4709 87.1967C91.9219 87.6595 92.2773 88.2072 92.5167 88.8082C92.7561 89.4091 92.8747 90.0516 92.8659 90.6987Z" fill="#E6E6E6"/>
<path d="M91.3217 64.7183C91.3158 65.3654 91.1826 66.0051 90.9296 66.6004C90.6766 67.1958 90.3089 67.7352 89.8476 68.1876C89.3862 68.64 88.8402 68.9964 88.2411 69.2366C87.642 69.4767 87.0016 69.5958 86.3565 69.5869C85.0554 69.5691 83.8143 69.0351 82.9047 68.1017C81.9951 67.1682 81.4912 65.9114 81.5031 64.6061C81.5208 63.3009 82.0532 62.0559 82.9837 61.1435C83.9142 60.2311 85.1671 59.7255 86.4683 59.7375C87.1134 59.7434 87.7511 59.877 88.3446 60.1308C88.9381 60.3845 89.4758 60.7534 89.9267 61.2162C90.3777 61.6791 90.7331 62.2267 90.9725 62.8277C91.2119 63.4286 91.3305 64.0712 91.3217 64.7183Z" fill="#E6E6E6"/>
<path d="M67.4351 107.661C67.4174 108.966 66.8851 110.211 65.9546 111.123C65.024 112.036 63.7712 112.541 62.47 112.529C61.8249 112.523 61.1872 112.39 60.5937 112.136C60.0002 111.882 59.4625 111.513 59.0115 111.05C58.5606 110.588 58.2053 110.04 57.9659 109.439C57.7265 108.838 57.6078 108.196 57.6167 107.548C57.6344 106.243 58.1666 104.998 59.0971 104.086C60.0276 103.173 61.2806 102.668 62.5818 102.68C63.8829 102.698 65.124 103.232 66.0336 104.165C66.9432 105.099 67.4471 106.355 67.4351 107.661Z" fill="#E6E6E6"/>
<path d="M60.6814 88.4331C60.6755 89.0803 60.5423 89.7199 60.2893 90.3153C60.0363 90.9106 59.6686 91.45 59.2072 91.9024C58.7458 92.3548 58.2 92.7113 57.6009 92.9514C57.0018 93.1915 56.3612 93.3106 55.7161 93.3017C55.071 93.2958 54.4334 93.1622 53.8399 92.9085C53.2464 92.6547 52.7086 92.2858 52.2576 91.823C51.8066 91.3601 51.4513 90.8125 51.212 90.2115C50.9726 89.6106 50.8539 88.968 50.8628 88.3209C50.8805 87.0157 51.4128 85.7707 52.3434 84.8583C53.2739 83.9459 54.5267 83.4404 55.8279 83.4524C57.129 83.4701 58.3701 84.0041 59.2797 84.9376C60.1893 85.871 60.6933 87.1279 60.6814 88.4331Z" fill="#E6E6E6"/>
<path d="M39.7241 81.1861C39.7182 81.8313 39.5856 82.4691 39.3341 83.063C39.0825 83.6569 38.7168 84.1952 38.2578 84.6473C37.7988 85.0994 37.2555 85.4564 36.659 85.6979C36.0625 85.9393 35.4244 86.0606 34.7812 86.0546C34.135 86.0488 33.4963 85.9153 32.9016 85.6618C32.3069 85.4083 31.7677 85.0398 31.3149 84.5773C30.8622 84.1148 30.5047 83.5673 30.2629 82.9662C30.021 82.3651 29.8996 81.7221 29.9055 81.0739C29.9232 79.7687 30.4555 78.5237 31.3861 77.6113C32.3166 76.6988 33.5694 76.1933 34.8706 76.2053C35.5157 76.2111 36.1534 76.3448 36.7469 76.5985C37.3404 76.8523 37.8781 77.2212 38.3291 77.684C38.7801 78.1468 39.1355 78.6944 39.3749 79.2954C39.6143 79.8964 39.7329 80.5389 39.7241 81.1861Z" fill="#E6E6E6"/>
<path d="M41.3572 103.241C41.3514 103.886 41.2189 104.524 40.9673 105.118C40.7158 105.712 40.35 106.25 39.891 106.702C39.432 107.154 38.8887 107.511 38.2922 107.753C37.6956 107.994 37.0576 108.115 36.4143 108.109C35.7692 108.103 35.1317 107.97 34.5381 107.716C33.9446 107.462 33.407 107.093 32.956 106.631C32.505 106.168 32.1496 105.62 31.9102 105.019C31.6708 104.418 31.5521 103.776 31.561 103.129C31.5669 102.483 31.6993 101.845 31.9509 101.252C32.2025 100.658 32.5681 100.119 33.0271 99.6673C33.4861 99.2152 34.0294 98.8582 34.6259 98.6168C35.2225 98.3753 35.8607 98.2541 36.5039 98.26C37.149 98.2658 37.7866 98.3994 38.3801 98.6532C38.9736 98.907 39.5113 99.2758 39.9622 99.7386C40.4132 100.201 40.7686 100.749 41.008 101.35C41.2474 101.951 41.3661 102.594 41.3572 103.241Z" fill="#E6E6E6"/>
<path d="M14.1382 93.5708C14.1324 94.216 13.9998 94.8538 13.7482 95.4477C13.4966 96.0416 13.131 96.58 12.672 97.0321C12.213 97.4842 11.6697 97.8411 11.0732 98.0826C10.4766 98.3241 9.83857 98.4453 9.19534 98.4394C7.89423 98.4216 6.65312 97.8876 5.74355 96.9541C4.83398 96.0207 4.33006 94.7639 4.342 93.4586C4.34785 92.8133 4.48031 92.1755 4.73188 91.5817C4.98345 90.9878 5.34913 90.4495 5.80812 89.9974C6.26711 89.5453 6.8104 89.1882 7.40692 88.9468C8.00345 88.7053 8.64151 88.5841 9.28475 88.5901C9.93075 88.5929 10.5698 88.7245 11.1646 88.9772C11.7595 89.23 12.2983 89.5987 12.7499 90.0621C13.2015 90.5256 13.5567 91.0744 13.795 91.6767C14.0333 92.279 14.1501 92.9228 14.1382 93.5708Z" fill="#E6E6E6"/>
<path d="M84.0754 49.3049C84.0459 51.1159 83.302 52.8413 82.0066 54.103C80.7111 55.3647 78.9698 56.0597 77.1644 56.0357C75.3591 56.0062 73.639 55.2598 72.3813 53.9603C71.1235 52.6608 70.4308 50.9141 70.4547 49.103C70.4957 47.2958 71.2433 45.5772 72.5362 44.318C73.8291 43.0589 75.5637 42.36 77.3656 42.3722C79.1691 42.4076 80.8858 43.1558 82.1423 44.454C83.3987 45.7523 84.0934 47.4956 84.0754 49.3049Z" fill="#E6E6E6"/>
<path d="M22.1895 49.9772C22.1542 51.7863 21.4085 53.5083 20.1143 54.7688C18.8201 56.0292 17.0821 56.7261 15.2784 56.708C13.475 56.6726 11.7584 55.9245 10.502 54.6262C9.24547 53.328 8.55067 51.5847 8.5687 49.7753C8.59814 47.9643 9.34218 46.2389 10.6376 44.9772C11.9331 43.7155 13.6744 43.0206 15.4798 43.0445C17.2832 43.0799 18.9998 43.8281 20.2563 45.1263C21.5127 46.4246 22.2075 48.1679 22.1895 49.9772Z" fill="#E6E6E6"/>
<path d="M27.826 103.846C27.7849 105.657 27.0342 107.379 25.7364 108.639C24.4387 109.899 22.6983 110.595 20.8925 110.577C19.091 110.536 17.3778 109.786 16.1226 108.489C14.8673 107.192 14.1706 105.452 14.1828 103.644C14.2181 101.831 14.967 100.106 16.266 98.845C17.5651 97.5839 19.3087 96.8896 21.1162 96.9137C22.9197 96.9491 24.6362 97.6972 25.8927 98.9954C27.1492 100.294 27.844 102.037 27.826 103.846Z" fill="#E6E6E6"/>
<path d="M13.6461 79.7272C13.6315 80.6259 13.4407 81.5129 13.0843 82.3375C12.728 83.1621 12.2132 83.9083 11.5694 84.5333C10.9255 85.1584 10.1651 85.6501 9.33182 85.9803C8.49852 86.3105 7.6086 86.4729 6.71275 86.458C5.81442 86.4584 4.9251 86.2778 4.09763 85.927C3.27017 85.5762 2.52135 85.0623 1.89559 84.4157C1.26983 83.7692 0.779841 83.0032 0.454732 82.1631C0.129624 81.3231 -0.0239284 80.4261 0.00302157 79.5253C0.0324627 77.7143 0.776366 75.9889 2.07183 74.7272C3.36729 73.4655 5.10855 72.7706 6.91396 72.7945C8.72131 72.8241 10.4436 73.5697 11.7049 74.8685C12.9662 76.1674 13.664 77.9141 13.6461 79.7272Z" fill="#E6E6E6"/>
<path d="M72.4231 84.1473C70.6173 84.1291 68.877 84.8253 67.5792 86.0852C66.2815 87.345 65.5308 89.0669 65.4897 90.8781C65.4971 91.6414 65.6254 92.3987 65.8698 93.1216L48.6483 103.218L48.38 86.2787L67.5921 73.2883C68.2191 73.9757 68.9783 74.5289 69.8239 74.9144C70.6694 75.3 71.584 75.51 72.5125 75.5319C74.3167 75.5443 76.0536 74.8461 77.35 73.5875C78.6465 72.3289 79.3991 70.6104 79.4459 68.8011C79.464 66.9896 78.77 65.2439 77.5141 63.9421C76.2583 62.6403 74.5416 61.8872 72.7362 61.846C70.9286 61.8219 69.185 62.5162 67.886 63.7773C66.5869 65.0384 65.8381 66.7637 65.8028 68.5768C65.8121 69.2212 65.9022 69.862 66.0712 70.4838L48.38 82.4421L48.0444 61.0159L55.4027 56.6857C56.6009 57.6923 58.1118 58.2478 59.6746 58.2562C60.5726 58.2833 61.4668 58.1292 62.3042 57.803C63.1417 57.4769 63.9053 56.9854 64.5498 56.3577C65.1943 55.73 65.7066 54.9788 66.0563 54.1488C66.406 53.3187 66.586 52.4266 66.5856 51.5255C66.6095 49.7123 65.9175 47.9632 64.6604 46.6601C63.4033 45.357 61.6832 44.6058 59.8758 44.5704C58.0739 44.5581 56.3393 45.257 55.0464 46.5161C53.7535 47.7753 53.0059 49.4939 52.9649 51.3011C52.9513 52.2411 53.1341 53.1735 53.5017 54.0383L48.0444 57.2242L47.7984 41.5191C49.3574 41.2277 50.763 40.3917 51.7661 39.1596C52.7691 37.9275 53.3049 36.3789 53.2781 34.7883C53.2962 32.9768 52.602 31.2311 51.3462 29.9293C50.0903 28.6275 48.3738 27.8744 46.5683 27.8332C44.7664 27.8209 43.0318 28.5198 41.7389 29.779C40.446 31.0382 39.6983 32.7567 39.6573 34.5639C39.6502 36.1425 40.1875 37.675 41.178 38.9017C42.1685 40.1284 43.5513 40.9738 45.0921 41.2947L44.8461 48.5864L39.7467 45.8941C39.7698 45.6178 39.7698 45.3402 39.7467 45.064C39.7555 44.4168 39.6369 43.7743 39.3975 43.1733C39.1581 42.5723 38.8028 42.0247 38.3518 41.5619C37.9008 41.0991 37.3632 40.7302 36.7697 40.4764C36.1762 40.2227 35.5385 40.089 34.8933 40.0832C34.2501 40.0773 33.612 40.1985 33.0155 40.44C32.419 40.6814 31.8757 41.0384 31.4167 41.4905C30.9577 41.9426 30.592 42.4809 30.3405 43.0748C30.0889 43.6687 29.9563 44.3065 29.9505 44.9518C29.9416 45.5989 30.0603 46.2414 30.2996 46.8424C30.539 47.4434 30.8945 47.991 31.3454 48.4538C31.7964 48.9166 32.3341 49.2855 32.9276 49.5393C33.5211 49.7931 34.1588 49.9267 34.8039 49.9325C35.9904 49.9451 37.1389 49.5131 38.0246 48.721L44.6224 52.221L43.9514 70.9325L34.0882 65.189C34.1857 64.7164 34.2381 64.2356 34.2448 63.7531C34.2717 62.8523 34.118 61.9553 33.7929 61.1152C33.4678 60.2752 32.9778 59.5092 32.3521 58.8626C31.7263 58.216 30.9775 57.7021 30.15 57.3513C29.3226 57.0005 28.4334 56.8199 27.5351 56.8203C25.7296 56.7963 23.9884 57.4914 22.6929 58.753C21.3975 60.0147 20.6534 61.7401 20.624 63.5511C20.6059 65.3605 21.3007 67.1038 22.5572 68.402C23.8137 69.7003 25.5303 70.4484 27.3337 70.4838C28.3363 70.496 29.3288 70.2827 30.2384 69.8595C31.1479 69.4363 31.9515 68.814 32.5897 68.0383L43.7726 74.5671L43.0345 95.0736L25.3655 84.3043C25.5996 83.7271 25.7212 83.1102 25.7234 82.487C25.7323 81.8399 25.6136 81.1974 25.3742 80.5964C25.1349 79.9954 24.7794 79.4478 24.3284 78.985C23.8775 78.5222 23.3398 78.1533 22.7463 77.8995C22.1528 77.6457 21.5151 77.5121 20.87 77.5062C20.2249 77.5003 19.5851 77.6223 18.9871 77.8652C18.3891 78.1081 17.8448 78.467 17.3856 78.9215C16.9263 79.376 16.5609 79.917 16.3107 80.5135C16.0604 81.1099 15.9301 81.7501 15.9272 82.3973C15.9184 83.0433 16.0372 83.6847 16.2768 84.2845C16.5165 84.8842 16.8722 85.4304 17.3234 85.8914C17.7747 86.3524 18.3126 86.7192 18.906 86.9705C19.4994 87.2218 20.1365 87.3527 20.7806 87.3556C21.5998 87.3622 22.4074 87.1616 23.1289 86.7723L42.9003 98.8204L41.1781 147.574H49.4311L48.7601 106.628L67.6368 95.5447C68.8847 96.7745 70.5619 97.4669 72.3112 97.4742C74.1187 97.4983 75.8624 96.804 77.1614 95.5429C78.4604 94.2819 79.2094 92.5565 79.2447 90.7434C79.17 88.9754 78.4199 87.3041 77.1498 86.076C75.8797 84.8478 74.1872 84.1572 72.4231 84.1473Z" fill="#CCCCCC"/>
<path d="M34.0655 32.59C34.0302 34.3991 33.2844 36.1211 31.9903 37.3816C30.6961 38.642 28.9581 39.3389 27.1544 39.3208C25.349 39.2796 23.6324 38.5265 22.3766 37.2247C21.1207 35.9229 20.4266 34.1772 20.4447 32.3657C20.4857 30.5585 21.2334 28.8399 22.5263 27.5807C23.8192 26.3215 25.5538 25.6227 27.3558 25.6349C29.1631 25.6703 30.8832 26.4216 32.1403 27.7247C33.3974 29.0278 34.0895 30.7768 34.0655 32.59Z" fill="#E6E6E6"/>
<path d="M258.998 45.7595C258.998 47.2173 258.421 48.6154 257.393 49.6463C256.366 50.6771 254.972 51.2563 253.519 51.2563C252.065 51.2563 250.672 50.6771 249.644 49.6463C248.616 48.6154 248.039 47.2173 248.039 45.7595C248.039 44.2996 248.616 42.8991 249.643 41.8647C250.67 40.8303 252.063 40.2462 253.519 40.2402C254.24 40.2402 254.954 40.3832 255.621 40.6608C256.287 40.9384 256.892 41.3454 257.401 41.8582C257.91 42.371 258.314 42.9796 258.588 43.6491C258.862 44.3186 259.001 45.0357 258.998 45.7595Z" fill="#E6E6E6"/>
<path d="M290.78 22.5163C290.78 23.9742 290.202 25.3723 289.175 26.4031C288.147 27.434 286.753 28.0131 285.3 28.0131C283.847 28.0131 282.453 27.434 281.425 26.4031C280.398 25.3723 279.82 23.9742 279.82 22.5163C279.82 21.0585 280.398 19.6604 281.425 18.6295C282.453 17.5987 283.847 17.0195 285.3 17.0195C286.753 17.0195 288.147 17.5987 289.175 18.6295C290.202 19.6604 290.78 21.0585 290.78 22.5163Z" fill="#E6E6E6"/>
<path d="M232.517 57.5837C232.517 59.0416 231.94 60.4397 230.912 61.4705C229.884 62.5014 228.491 63.0805 227.037 63.0805C225.584 63.0805 224.19 62.5014 223.163 61.4705C222.135 60.4397 221.558 59.0416 221.558 57.5837C221.558 56.1259 222.135 54.7277 223.163 53.6969C224.19 52.666 225.584 52.0869 227.037 52.0869C228.491 52.0869 229.884 52.666 230.912 53.6969C231.94 54.7277 232.517 56.1259 232.517 57.5837Z" fill="#E6E6E6"/>
<path d="M261.101 6.38457C261.101 7.84448 260.524 9.24494 259.497 10.2794C258.47 11.3138 257.077 11.8979 255.621 11.9038C254.9 11.9038 254.185 11.7609 253.519 11.4832C252.853 11.2056 252.248 10.7987 251.739 10.2859C251.23 9.77309 250.826 9.16448 250.552 8.49498C250.278 7.82549 250.139 7.1083 250.142 6.38457C250.142 5.66377 250.284 4.95007 250.559 4.28442C250.835 3.61877 251.239 3.0143 251.748 2.50567C252.257 1.99703 252.861 1.59426 253.526 1.32047C254.191 1.04668 254.903 0.907248 255.621 0.910202C257.071 0.91019 258.461 1.48624 259.488 2.51224C260.515 3.53824 261.095 4.93062 261.101 6.38457Z" fill="#E6E6E6"/>
<path d="M280.403 9.09936C280.403 10.5572 279.825 11.9553 278.798 12.9862C277.77 14.017 276.376 14.5962 274.923 14.5962C273.47 14.5962 272.076 14.017 271.048 12.9862C270.021 11.9553 269.443 10.5572 269.443 9.09936C269.443 7.64152 270.021 6.24337 271.048 5.21252C272.076 4.18167 273.47 3.60254 274.923 3.60254C276.376 3.60254 277.77 4.18167 278.798 5.21252C279.825 6.24337 280.403 7.64152 280.403 9.09936Z" fill="#E6E6E6"/>
<path d="M281.453 57.9871C281.453 59.4449 280.876 60.843 279.849 61.8739C278.821 62.9047 277.427 63.4839 275.974 63.4839C274.521 63.4839 273.127 62.9047 272.099 61.8739C271.072 60.843 270.494 59.4449 270.494 57.9871C270.491 57.2644 270.631 56.5483 270.905 55.88C271.18 55.2118 271.583 54.6046 272.093 54.0936C272.602 53.5826 273.207 53.1778 273.873 52.9026C274.54 52.6274 275.253 52.4873 275.974 52.4903C277.427 52.4903 278.821 53.0694 279.849 54.1003C280.876 55.1311 281.453 56.5292 281.453 57.9871Z" fill="#E6E6E6"/>
<path d="M309.947 70.3494C309.959 71.0788 309.826 71.8033 309.556 72.4806C309.286 73.1579 308.885 73.7745 308.374 74.2944C307.864 74.8144 307.256 75.2273 306.586 75.5092C305.915 75.791 305.195 75.9361 304.468 75.936C303.015 75.936 301.621 75.3569 300.593 74.326C299.566 73.2952 298.988 71.897 298.988 70.4392C298.994 68.9853 299.574 67.5929 300.601 66.5669C301.628 65.5409 303.018 64.9648 304.468 64.9648C305.902 64.9645 307.279 65.5282 308.304 66.5349C309.328 67.5417 309.918 68.9111 309.947 70.3494Z" fill="#E6E6E6"/>
<path d="M315.583 83.4743C315.583 84.9322 315.006 86.3303 313.978 87.3611C312.951 88.392 311.557 88.9711 310.104 88.9711C309.383 88.9741 308.669 88.8339 308.003 88.5587C307.337 88.2835 306.732 87.8788 306.222 87.3678C305.713 86.8568 305.309 86.2496 305.035 85.5814C304.761 84.9131 304.621 84.197 304.624 83.4743C304.624 82.0165 305.201 80.6184 306.229 79.5875C307.257 78.5567 308.65 77.9775 310.104 77.9775C311.557 77.9775 312.951 78.5567 313.978 79.5875C315.006 80.6184 315.583 82.0165 315.583 83.4743Z" fill="#E6E6E6"/>
<path d="M313.638 54.3746C313.641 55.0973 313.501 55.8134 313.227 56.4816C312.952 57.1499 312.549 57.757 312.04 58.2681C311.53 58.7791 310.925 59.1838 310.259 59.459C309.593 59.7342 308.879 59.8744 308.158 59.8714C306.705 59.8714 305.311 59.2923 304.284 58.2614C303.256 57.2306 302.679 55.8324 302.679 54.3746C302.713 52.9594 303.29 51.6121 304.29 50.6132C305.29 49.6143 306.636 49.0409 308.046 49.0124C308.765 48.9945 309.48 49.1193 310.15 49.3794C310.821 49.6394 311.433 50.0298 311.953 50.5281C312.472 51.0263 312.889 51.6226 313.178 52.2827C313.467 52.9428 313.623 53.6537 313.638 54.3746Z" fill="#E6E6E6"/>
<path d="M287.38 102.724C287.38 104.182 286.803 105.58 285.775 106.611C284.748 107.642 283.354 108.221 281.901 108.221C280.447 108.221 279.053 107.642 278.026 106.611C276.998 105.58 276.421 104.182 276.421 102.724C276.421 101.267 276.998 99.8684 278.026 98.8375C279.053 97.8067 280.447 97.2275 281.901 97.2275C283.354 97.2275 284.748 97.8067 285.775 98.8375C286.803 99.8684 287.38 101.267 287.38 102.724Z" fill="#E6E6E6"/>
<path d="M279.619 81.3425C279.619 82.8003 279.042 84.1985 278.014 85.2293C276.987 86.2602 275.593 86.8393 274.14 86.8393C272.686 86.8393 271.293 86.2602 270.265 85.2293C269.237 84.1985 268.66 82.8003 268.66 81.3425C268.66 79.8847 269.237 78.4865 270.265 77.4556C271.293 76.4248 272.686 75.8457 274.14 75.8457C275.593 75.8457 276.987 76.4248 278.014 77.4556C279.042 78.4865 279.619 79.8847 279.619 81.3425Z" fill="#E6E6E6"/>
<path d="M256.135 73.49C256.135 74.9478 255.558 76.3459 254.53 77.3768C253.502 78.4076 252.109 78.9867 250.655 78.9867C249.202 78.9867 247.808 78.4076 246.781 77.3768C245.753 76.3459 245.176 74.9478 245.176 73.49C245.176 72.0321 245.753 70.634 246.781 69.6031C247.808 68.5723 249.202 67.9932 250.655 67.9932C252.109 67.9932 253.502 68.5723 254.53 69.6031C255.558 70.634 256.135 72.0321 256.135 73.49Z" fill="#E6E6E6"/>
<path d="M258.215 98.0799C258.218 98.8007 258.079 99.515 257.806 100.182C257.533 100.849 257.132 101.455 256.625 101.965C256.118 102.476 255.515 102.881 254.852 103.158C254.188 103.434 253.477 103.577 252.758 103.577C252.038 103.58 251.324 103.44 250.658 103.164C249.991 102.889 249.386 102.484 248.877 101.973C248.367 101.462 247.964 100.855 247.689 100.187C247.415 99.5187 247.275 98.8026 247.278 98.0799C247.278 97.3591 247.42 96.6454 247.696 95.9797C247.972 95.3141 248.376 94.7096 248.885 94.201C249.394 93.6923 249.998 93.2896 250.663 93.0158C251.327 92.742 252.039 92.6026 252.758 92.6055C254.205 92.6055 255.593 93.1823 256.617 94.2089C257.64 95.2356 258.215 96.628 258.215 98.0799Z" fill="#E6E6E6"/>
<path d="M227.731 87.6247C227.731 89.0826 227.153 90.4807 226.126 91.5116C225.098 92.5424 223.704 93.1215 222.251 93.1215C220.798 93.1215 219.404 92.5424 218.376 91.5116C217.349 90.4807 216.771 89.0826 216.771 87.6247C216.771 86.1669 217.349 84.7688 218.376 83.7379C219.404 82.7071 220.798 82.1279 222.251 82.1279C223.704 82.1279 225.098 82.7071 226.126 83.7379C227.153 84.7688 227.731 86.1669 227.731 87.6247Z" fill="#E6E6E6"/>
<path d="M305.273 37.3684C305.273 39.4034 304.467 41.3551 303.032 42.7941C301.598 44.2331 299.652 45.0415 297.624 45.0415C295.595 45.0415 293.649 44.2331 292.215 42.7941C290.78 41.3551 289.975 39.4034 289.975 37.3684C289.975 35.3334 290.78 33.3817 292.215 31.9427C293.649 30.5037 295.595 29.6953 297.624 29.6953C299.652 29.6953 301.598 30.5037 303.032 31.9427C304.467 33.3817 305.273 35.3334 305.273 37.3684Z" fill="#E6E6E6"/>
<path d="M236.185 38.8713C236.186 40.8871 235.395 42.8219 233.985 44.2577C232.574 45.6935 230.657 46.5149 228.648 46.5444C227.645 46.5444 226.651 46.3458 225.724 45.9599C224.798 45.574 223.956 45.0085 223.247 44.2957C222.539 43.5829 221.978 42.7368 221.596 41.806C221.214 40.8752 221.019 39.8779 221.022 38.8713C221.019 37.8647 221.214 36.8675 221.596 35.9367C221.978 35.0059 222.539 34.1598 223.247 33.447C223.956 32.7342 224.798 32.1686 225.724 31.7828C226.651 31.3969 227.645 31.1982 228.648 31.1982C230.657 31.2277 232.574 32.0491 233.985 33.4849C235.395 34.9207 236.186 36.8556 236.185 38.8713Z" fill="#E6E6E6"/>
<path d="M243.118 98.9329C243.118 100.968 242.313 102.92 240.878 104.359C239.444 105.798 237.498 106.606 235.469 106.606C234.465 106.606 233.47 106.408 232.542 106.022C231.614 105.636 230.771 105.071 230.061 104.359C229.35 103.646 228.787 102.8 228.403 101.869C228.018 100.938 227.82 99.9406 227.82 98.9329C227.82 97.9263 228.018 96.9297 228.403 96C228.788 95.0703 229.351 94.2259 230.062 93.5152C230.773 92.8044 231.616 92.2414 232.544 91.8582C233.472 91.4751 234.466 91.2793 235.469 91.2823C236.473 91.2793 237.467 91.4751 238.395 91.8582C239.323 92.2414 240.166 92.8044 240.877 93.5152C241.587 94.2259 242.151 95.0703 242.536 96C242.92 96.9297 243.118 97.9263 243.118 98.9329Z" fill="#E6E6E6"/>
<path d="M226.993 72.1663C226.993 74.2013 226.187 76.153 224.752 77.592C223.318 79.031 221.372 79.8394 219.344 79.8394C217.319 79.8334 215.379 79.0224 213.949 77.584C212.52 76.1457 211.717 74.1975 211.717 72.1663C211.717 70.1372 212.52 68.1912 213.951 66.7565C215.381 65.3217 217.321 64.5157 219.344 64.5157C220.347 64.5127 221.341 64.7084 222.269 65.0916C223.197 65.4747 224.04 66.0378 224.751 66.7485C225.461 67.4593 226.025 68.3037 226.41 69.2333C226.795 70.163 226.993 71.1597 226.993 72.1663Z" fill="#E6E6E6"/>
<path d="M292.659 76.4068C290.63 76.4068 288.685 77.2152 287.25 78.6542C285.816 80.0932 285.01 82.0449 285.01 84.0799C285.018 84.9221 285.169 85.7567 285.457 86.5478L266.379 98.035L265.865 79.1215L287.157 64.3812C287.865 65.1317 288.718 65.7296 289.664 66.1385C290.61 66.5474 291.629 66.7586 292.659 66.7594C294.688 66.7594 296.633 65.951 298.068 64.512C299.502 63.073 300.308 61.1213 300.308 59.0863C300.308 57.0513 299.502 55.0996 298.068 53.6606C296.633 52.2216 294.688 51.4132 292.659 51.4132C290.63 51.4132 288.685 52.2216 287.25 53.6606C285.816 55.0996 285.01 57.0513 285.01 59.0863C285.018 59.802 285.131 60.5126 285.346 61.1952L265.753 74.6568L265.105 50.7401L273.268 45.8267C274.623 46.9253 276.312 47.5269 278.054 47.5318C280.079 47.5318 282.021 46.7265 283.455 45.2923C284.889 43.8582 285.697 41.9123 285.703 39.8811C285.703 37.8461 284.897 35.8944 283.463 34.4554C282.029 33.0165 280.083 32.2081 278.054 32.2081C276.026 32.2081 274.08 33.0165 272.646 34.4554C271.211 35.8944 270.405 37.8461 270.405 39.8811C270.406 40.9231 270.619 41.9539 271.031 42.91L264.993 46.5446L264.523 29.0446C266.232 28.6755 267.763 27.7307 268.861 26.3673C269.96 25.0039 270.56 23.3042 270.562 21.551C270.562 19.516 269.756 17.5643 268.321 16.1253C266.887 14.6863 264.941 13.8779 262.913 13.8779C261.908 13.8779 260.914 14.0764 259.986 14.462C259.057 14.8476 258.214 15.4128 257.504 16.1253C256.794 16.8378 256.23 17.6837 255.846 18.6146C255.461 19.5456 255.264 20.5434 255.264 21.551C255.267 23.3268 255.883 25.0467 257.009 26.4173C258.135 27.7878 259.7 28.7243 261.437 29.067L261.235 37.2113L255.51 34.2722C255.58 33.9629 255.617 33.647 255.621 33.3298C255.621 31.872 255.044 30.4739 254.017 29.443C252.989 28.4122 251.595 27.8331 250.142 27.8331C248.689 27.8331 247.295 28.4122 246.267 29.443C245.24 30.4739 244.662 31.872 244.662 33.3298C244.659 34.0525 244.799 34.7687 245.073 35.4369C245.348 36.1052 245.751 36.7123 246.261 37.2233C246.77 37.7343 247.375 38.1391 248.041 38.4143C248.708 38.6895 249.421 38.8296 250.142 38.8267C251.46 38.8151 252.729 38.3294 253.72 37.4581L261.146 41.2722L260.609 62.16L249.426 55.8779C249.543 55.3475 249.603 54.8059 249.605 54.2625C249.559 52.2781 248.748 50.3887 247.343 48.9914C245.937 47.594 244.046 46.7974 242.068 46.769C240.039 46.769 238.094 47.5774 236.659 49.0164C235.225 50.4553 234.419 52.407 234.419 54.442C234.419 56.4771 235.225 58.4287 236.659 59.8677C238.094 61.3067 240.039 62.1151 242.068 62.1151C243.188 62.1117 244.294 61.8606 245.307 61.3798C246.32 60.8989 247.215 60.2001 247.928 59.3331L260.542 66.4677L259.96 89.3972L240.122 77.5734C240.377 76.9311 240.506 76.2455 240.502 75.5542C240.496 74.1003 239.916 72.7079 238.889 71.6819C237.862 70.6559 236.472 70.0798 235.023 70.0799C233.573 70.0798 232.183 70.6559 231.156 71.6819C230.129 72.7079 229.549 74.1003 229.543 75.5542C229.543 77.0121 230.12 78.4102 231.148 79.441C232.176 80.4719 233.569 81.051 235.023 81.051C235.946 81.0442 236.854 80.8051 237.662 80.3555L259.871 93.5927L258.507 148.045H267.721L266.491 102.32L287.448 89.7337C288.856 91.0876 290.731 91.8433 292.682 91.8427C294.71 91.8427 296.656 91.0343 298.09 89.5953C299.525 88.1563 300.331 86.2046 300.331 84.1696C300.342 83.1525 300.153 82.1433 299.772 81.2005C299.392 80.2577 298.828 79.4002 298.114 78.6778C297.4 77.9555 296.551 77.3827 295.614 76.9928C294.678 76.603 293.673 76.4038 292.659 76.4068Z" fill="#CCCCCC"/>
<path d="M249.18 19.3078C249.18 21.3429 248.374 23.2945 246.94 24.7335C245.505 26.1725 243.56 26.9809 241.531 26.9809C239.502 26.9809 237.557 26.1725 236.122 24.7335C234.688 23.2945 233.882 21.3429 233.882 19.3078C233.882 17.2728 234.688 15.3211 236.122 13.8822C237.557 12.4432 239.502 11.6348 241.531 11.6348C243.56 11.6348 245.505 12.4432 246.94 13.8822C248.374 15.3211 249.18 17.2728 249.18 19.3078Z" fill="#E6E6E6"/>
<path d="M728.433 51.7949H636.51V147.955H728.433V51.7949Z" fill="white"/>
<path d="M683.142 8.02246L630.538 51.7949H734.382L683.142 8.02246Z" fill="#CCCCCC"/>
<path d="M715.416 112.978H705.016V132.811H715.416V112.978Z" fill="#666666"/>
<path d="M658.294 112.978H647.894V132.811H658.294V112.978Z" fill="#666666"/>
<path d="M672.787 144.59V118.699C672.787 116.367 673.711 114.13 675.355 112.48C676.999 110.831 679.229 109.904 681.554 109.904C682.705 109.904 683.844 110.132 684.906 110.574C685.969 111.016 686.934 111.665 687.746 112.482C688.558 113.299 689.202 114.268 689.64 115.335C690.078 116.402 690.302 117.545 690.299 118.699V144.59H672.787Z" fill="#666666"/>
<path d="M700.789 65.458H689.606V76.676H700.789V65.458Z" fill="#666666"/>
<path d="M715.573 65.458H704.39V76.676H715.573V65.458Z" fill="#666666"/>
<path d="M700.789 79.8848H689.606V91.1027H700.789V79.8848Z" fill="#666666"/>
<path d="M715.573 79.8848H704.39V91.1027H715.573V79.8848Z" fill="#666666"/>
<path d="M658.764 65.458H647.581V76.676H658.764V65.458Z" fill="#666666"/>
<path d="M673.547 65.458H662.364V76.676H673.547V65.458Z" fill="#666666"/>
<path d="M658.764 79.8848H647.581V91.1027H658.764V79.8848Z" fill="#666666"/>
<path d="M673.547 79.8848H662.364V91.1027H673.547V79.8848Z" fill="#666666"/>
</g>
</svg>
