<svg width="160" height="160" viewBox="0 0 160 160" fill="none" xmlns="http://www.w3.org/2000/svg">
<rect width="160" height="160" rx="30" fill="#219B66"/>
<circle cx="23" cy="58" r="10" fill="white"/>
<path d="M74.5002 121.328C57.9002 117.328 44.8002 102.228 42.6002 84.7282C41.9002 79.2282 41.8002 79.2282 35.5002 75.3282L29.2002 71.4282L32.5002 68.3282C34.0248 66.8036 35.7905 64.2912 36.355 63.2841C36.4593 63.098 36.512 62.8904 36.5982 62.6952C36.6472 62.5843 36.7024 62.5144 36.7698 62.4818C37.1246 62.3102 37.8161 63.1716 39.7002 64.5282C41.4002 65.7282 43.2002 66.7282 43.7002 66.7282C44.1002 66.7282 45.6002 64.4282 46.9002 61.6282C54.6002 45.3282 74.0002 35.3282 91.7002 38.6282C103.7 40.8282 113.4 47.0282 119.8 56.7282C123.4 62.0282 128 75.0282 126.8 76.2282C126.5 76.5282 116 79.0282 103.4 81.8282C81.8002 86.6282 79.9002 86.9282 70.5002 86.3282C65.0002 86.0282 59.0002 85.3282 57.3002 84.8282C53.4002 83.7282 53.3002 84.2282 55.6002 91.0282C57.7002 97.2282 64.9002 105.028 71.3002 108.128C81.7002 113.128 91.9002 112.328 102.3 105.828C106.7 103.028 107 102.428 107 98.6282C107 89.9282 117.8 85.1282 123.5 91.3282C127.3 95.4282 127 101.728 122.9 105.128C121.2 106.528 119.1 107.5 118.5 107.5C117.9 107.5 116.1 109.228 114 111.128C103 121.028 88.6002 124.728 74.5002 121.328ZM95.5002 72.1282C104.9 70.0282 112.7 68.2282 112.9 68.0282C113.7 67.4282 110.5 62.4282 106.8 58.6282C94.9002 46.3282 75.9002 46.1282 63.2002 58.1282C60.0002 61.0282 55.0002 69.4282 55.0002 71.6282C55.0002 72.2282 56.7002 73.1282 58.8002 73.6282C69.7002 76.4282 76.6002 76.2282 95.5002 72.1282Z" fill="white"/>
</svg>
